<mxfile host="app.diagrams.net" agent="Mozilla/5.0 (Macintosh; Intel Mac OS X 10_15_7) AppleWebKit/605.1.15 (KHTML, like Gecko) Version/16.6 Safari/605.1.15" version="25.0.3">
  <diagram name="Page-1" id="Q5uxBifAXevWRvMIwFVu">
    <mxGraphModel dx="1215" dy="571" grid="1" gridSize="10" guides="1" tooltips="1" connect="1" arrows="1" fold="1" page="1" pageScale="1" pageWidth="827" pageHeight="1169" math="0" shadow="0">
      <root>
        <mxCell id="0" />
        <mxCell id="1" parent="0" />
        <mxCell id="SSIjCYdA-nFgS-pGBRlJ-1" value="customer" style="rounded=0;whiteSpace=wrap;html=1;" vertex="1" parent="1">
          <mxGeometry x="-10" y="240" width="130" height="30" as="geometry" />
        </mxCell>
        <mxCell id="SSIjCYdA-nFgS-pGBRlJ-3" value="customer_purchases" style="rounded=0;whiteSpace=wrap;html=1;" vertex="1" parent="1">
          <mxGeometry x="264" y="240" width="150" height="30" as="geometry" />
        </mxCell>
        <mxCell id="SSIjCYdA-nFgS-pGBRlJ-4" value="&lt;font style=&quot;font-size: 12px;&quot;&gt;customer_id customer_first_name customer_last_name customer_postal_code&lt;/font&gt;" style="rounded=0;whiteSpace=wrap;html=1;align=left;" vertex="1" parent="1">
          <mxGeometry x="-10" y="270" width="130" height="60" as="geometry" />
        </mxCell>
        <mxCell id="SSIjCYdA-nFgS-pGBRlJ-5" value="&lt;span style=&quot;text-align: start;&quot;&gt;&lt;font style=&quot;font-size: 12px;&quot;&gt;product_id&lt;/font&gt;&lt;/span&gt;&lt;div&gt;&lt;span style=&quot;text-align: start;&quot;&gt;&lt;font style=&quot;font-size: 12px;&quot;&gt;vendor_id&lt;/font&gt;&lt;/span&gt;&lt;/div&gt;&lt;div&gt;&lt;span style=&quot;text-align: start;&quot;&gt;&lt;font style=&quot;font-size: 12px;&quot;&gt;market_date&lt;/font&gt;&lt;/span&gt;&lt;/div&gt;&lt;div&gt;&lt;span style=&quot;text-align: start;&quot;&gt;&lt;font style=&quot;font-size: 12px;&quot;&gt;customer_id&lt;/font&gt;&lt;/span&gt;&lt;/div&gt;&lt;div&gt;&lt;span style=&quot;text-align: start;&quot;&gt;&lt;font style=&quot;font-size: 12px;&quot;&gt;quantity&lt;/font&gt;&lt;/span&gt;&lt;/div&gt;&lt;div&gt;&lt;span style=&quot;text-align: start;&quot;&gt;&lt;font style=&quot;font-size: 12px;&quot;&gt;cost_to_customer_per_qty&lt;/font&gt;&lt;/span&gt;&lt;/div&gt;&lt;div&gt;&lt;span style=&quot;text-align: start;&quot;&gt;&lt;font style=&quot;font-size: 12px;&quot;&gt;transaction_time&lt;/font&gt;&lt;/span&gt;&lt;/div&gt;" style="rounded=0;whiteSpace=wrap;html=1;" vertex="1" parent="1">
          <mxGeometry x="264" y="270" width="150" height="100" as="geometry" />
        </mxCell>
        <mxCell id="SSIjCYdA-nFgS-pGBRlJ-6" value="" style="endArrow=none;html=1;rounded=0;exitX=1;exitY=0.25;exitDx=0;exitDy=0;" edge="1" parent="1" source="SSIjCYdA-nFgS-pGBRlJ-4">
          <mxGeometry width="50" height="50" relative="1" as="geometry">
            <mxPoint x="170" y="300" as="sourcePoint" />
            <mxPoint x="260" y="320" as="targetPoint" />
            <Array as="points">
              <mxPoint x="200" y="285" />
              <mxPoint x="200" y="320" />
            </Array>
          </mxGeometry>
        </mxCell>
        <mxCell id="SSIjCYdA-nFgS-pGBRlJ-7" value="1" style="text;html=1;align=center;verticalAlign=middle;whiteSpace=wrap;rounded=0;" vertex="1" parent="1">
          <mxGeometry x="130" y="260" width="60" height="30" as="geometry" />
        </mxCell>
        <mxCell id="SSIjCYdA-nFgS-pGBRlJ-9" value="&lt;span style=&quot;text-align: start; caret-color: rgb(34, 34, 34); color: rgb(34, 34, 34); font-family: &amp;quot;Times New Roman&amp;quot;; font-size: 25.6px;&quot;&gt;âˆž&lt;/span&gt;" style="text;html=1;align=center;verticalAlign=middle;whiteSpace=wrap;rounded=0;" vertex="1" parent="1">
          <mxGeometry x="204" y="290" width="60" height="30" as="geometry" />
        </mxCell>
      </root>
    </mxGraphModel>
  </diagram>
</mxfile>
